<svg width="17" height="17" viewBox="0 0 17 17" fill="none" xmlns="http://www.w3.org/2000/svg">
<g id="Iconsax/Bulk/copy">
<path id="Vector" d="M11.0603 8.91712V11.8204C11.0603 14.2397 10.0926 15.2075 7.67319 15.2075H4.76994C2.35056 15.2075 1.38281 14.2397 1.38281 11.8204V8.91712C1.38281 6.49775 2.35056 5.53 4.76994 5.53H7.67319C10.0926 5.53 11.0603 6.49775 11.0603 8.91712Z" fill="white"/>
<path id="Vector_2" opacity="0.4" d="M11.8206 1.38251H8.91732C6.53251 1.38251 5.56476 2.32952 5.53711 4.66595H7.67307C10.5763 4.66595 11.9243 6.01388 11.9243 8.91713V11.0531C14.2607 11.0254 15.2077 10.0577 15.2077 7.67288V4.76963C15.2077 2.35026 14.2399 1.38251 11.8206 1.38251Z" fill="white"/>
</g>
</svg>
